<?xml version="1.0" encoding="UTF-8"?>
<!DOCTYPE svg PUBLIC "-//W3C//DTD SVG 1.1//EN" "http://www.w3.org/Graphics/SVG/1.1/DTD/svg11.dtd">
<svg version="1.1" xmlns="http://www.w3.org/2000/svg" xmlns:xlink="http://www.w3.org/1999/xlink"
  x="0" y="0" width="500" height="500" viewBox="0, 0, 500, 500">
  <path
    d="M17.572 200.647L7.02833 208.178V208.927L6.22173 211.122H4.31893L2.70886 236.005L0.513321 238.347V272.305L5.19714 273.915L6.22173 276.842C6.41689 279.184 7.50978 285.215 10.3201 290.601C13.1304 295.987 23.4933 300.261 28.3235 301.725L76.9182 350.759L91.116 362.615H436.841L468.895 351.344L486.313 343.148L499.487 329.828L498.316 310.8L486.313 292.504H480.459L471.384 288.844L459.528 272.305L431.718 265.572L432.449 258.253L426.741 252.545L385.758 242.738L382.081 254.301L362.192 240.982V235.712L364.827 233.517V226.345L362.192 224.149L339.359 224.881L323.697 214.928C323.112 214.147 320.887 211.854 316.671 208.927C312.456 205.999 302.132 204.389 297.497 203.95L295.155 202.633L264.564 200.876V192.68L252.122 190.484L249.927 184.044H272.76L274.371 184.922H280.079L280.811 182.141L293.545 177.604L382.081 175.555L394.393 177.604H418.984L419.862 175.555H421.911V159.979H419.862L418.984 157.99H394.393L382.081 159.979H296.728L279.155 155.962H201.835V149.435L144.598 144.917L108.95 137.385H83.3443L80.3318 152.95H51.2112V182.572L80.3318 193.618V200.647L67.2778 204.162V208.178H57.2362H35.6468V200.647H17.572Z"
    fill="#000000" />
</svg>